# xmcd CD database file
#
# Track frame offsets:
#	150
#	22931
#	49434
#	79330
#	109434
#	143182
#	173074
#	205194
#	229271
#	253895
#
# Disc length: 3812 seconds
#
# Revision: 0
# Processed by: cddbd v1.4PL0 Copyright (c) Steve Scherf et al.
# Submitted via: CDex 1.50beta10
#
DISCID=8f0ee20a
DTITLE=Ndumiso - Mofolo Hall
DYEAR=2000
DGENRE=Jazz
TTITLE0=Reason
TTITLE1=Why
TTITLE2=Mofolo Hall (Akulalwa)
TTITLE3=Smooth Talk
TTITLE4=Slip Away
TTITLE5=I've been robbed
TTITLE6=Can't stop
TTITLE7=War of the gods
TTITLE8=Mas que nada
TTITLE9=Can't stop (dub)
EXTD=YEAR: 2000
EXTT0=
EXTT1=
EXTT2=
EXTT3=
EXTT4=
EXTT5=
EXTT6=
EXTT7=
EXTT8=
EXTT9=
PLAYORDER=
